<svg xmlns="http://www.w3.org/2000/svg" xmlns:xlink="http://www.w3.org/1999/xlink" width="87" height="82" viewBox="0 0 87 82"><defs><filter id="a"><feOffset dy="3" input="SourceAlpha"/><feGaussianBlur stdDeviation="3" result="b"/><feFlood flood-opacity="0.161" result="c"/><feComposite operator="out" in="SourceGraphic" in2="b"/><feComposite operator="in" in="c"/><feComposite operator="in" in2="SourceGraphic"/></filter><filter id="d" x="0" y="12" width="54" height="65" filterUnits="userSpaceOnUse"><feOffset dy="3" input="SourceAlpha"/><feGaussianBlur stdDeviation="4" result="e"/><feFlood flood-opacity="0.161"/><feComposite operator="in" in2="e"/></filter><filter id="f" x="0" y="12" width="54" height="65" filterUnits="userSpaceOnUse"><feOffset dy="3" input="SourceAlpha"/><feGaussianBlur stdDeviation="4" result="g"/><feFlood flood-opacity="0.161" result="h"/><feComposite operator="out" in="SourceGraphic" in2="g"/><feComposite operator="in" in="h"/><feComposite operator="in" in2="SourceGraphic"/></filter></defs><g transform="translate(-9 -20)"><g data-type="innerShadowGroup"><circle cx="41" cy="41" r="41" transform="translate(14 20)" fill="#0db4fe"/><g transform="matrix(1, 0, 0, 1, 9, 20)" filter="url(#a)"><circle cx="41" cy="41" r="41" transform="translate(5)" fill="#fff"/></g><g transform="translate(14 20)" fill="none" stroke="#707070" stroke-width="1"><circle cx="41" cy="41" r="41" stroke="none"/><circle cx="41" cy="41" r="40.5" fill="none"/></g></g><g data-type="innerShadowGroup"><g transform="matrix(1, 0, 0, 1, 9, 20)" filter="url(#d)"><g transform="translate(12 62) rotate(-90)" fill="#fff"><path d="M 31.5274600982666 29.50000381469727 L 9.472539901733398 29.50000381469727 C 7.773660182952881 29.50000381469727 6.285950183868408 28.6030330657959 5.492909908294678 27.10061264038086 C 4.699870109558105 25.59819221496582 4.798649787902832 23.86381340026855 5.757140159606934 22.46115303039551 L 16.78458976745605 6.323402881622314 C 17.63625907897949 5.077063083648682 18.99047088623047 4.362253189086914 20.5 4.362253189086914 C 22.00952911376953 4.362253189086914 23.36374092102051 5.077063083648682 24.21540069580078 6.32339334487915 L 35.24285888671875 22.46114349365234 C 36.20135116577148 23.86380386352539 36.30012893676758 25.59819221496582 35.507080078125 27.10061264038086 C 34.71403884887695 28.6030330657959 33.2263298034668 29.50000381469727 31.5274600982666 29.50000381469727 Z" stroke="none"/><path d="M 20.5 4.862253189086914 C 19.15819931030273 4.862253189086914 17.9544506072998 5.497642517089844 17.19741058349609 6.605493545532227 L 6.169948577880859 22.74324417114258 C 5.317970275878906 23.99005317687988 5.230171203613281 25.53172302246094 5.935089111328125 26.86721420288086 C 6.640018463134766 28.20269393920898 7.962429046630859 28.99999237060547 9.472539901733398 28.99999237060547 L 31.52746963500977 28.99999237060547 C 33.03741836547852 28.99999237060547 34.35974884033203 28.2026424407959 35.06472015380859 26.8670825958252 C 35.76966857910156 25.53154373168945 35.68193817138672 23.98992347717285 34.83003997802734 22.74323272705078 L 23.80257987976074 6.605493545532227 C 23.04553985595703 5.497642517089844 21.84180068969727 4.862253189086914 20.5 4.862253189086914 M 20.49999809265137 3.862253189086914 C 22.06777191162109 3.862253189086914 23.63554573059082 4.588603973388672 24.62821960449219 6.041303634643555 L 35.65568161010742 22.17904281616211 C 37.92328262329102 25.49748039245605 35.54647827148438 29.99999237060547 31.52747344970703 29.99999237060547 C 31.52722930908203 29.99999237060547 31.52770614624023 29.99999237060547 31.5274600982666 29.99999237060547 L 9.472539901733398 29.99999237060547 C 5.453090667724609 30.00000381469727 3.076580047607422 25.49768257141113 5.344310760498047 22.17905426025391 L 16.37177085876465 6.041303634643555 C 17.36445045471191 4.588603973388672 18.93222427368164 3.862253189086914 20.49999809265137 3.862253189086914 Z" stroke="none" fill="#707070"/></g></g><g transform="translate(21 82) rotate(-90)" fill="#fff"><path d="M 31.5274600982666 29.50000381469727 L 9.472539901733398 29.50000381469727 C 7.773660182952881 29.50000381469727 6.285950183868408 28.6030330657959 5.492909908294678 27.10061264038086 C 4.699870109558105 25.59819221496582 4.798649787902832 23.86381340026855 5.757140159606934 22.46115303039551 L 16.78458976745605 6.323402881622314 C 17.63625907897949 5.077063083648682 18.99047088623047 4.362253189086914 20.5 4.362253189086914 C 22.00952911376953 4.362253189086914 23.36374092102051 5.077063083648682 24.21540069580078 6.32339334487915 L 35.24285888671875 22.46114349365234 C 36.20135116577148 23.86380386352539 36.30012893676758 25.59819221496582 35.507080078125 27.10061264038086 C 34.71403884887695 28.6030330657959 33.2263298034668 29.50000381469727 31.5274600982666 29.50000381469727 Z" stroke="none"/><path d="M 20.5 4.862253189086914 C 19.15819931030273 4.862253189086914 17.9544506072998 5.497642517089844 17.19741058349609 6.605493545532227 L 6.169948577880859 22.74324417114258 C 5.317970275878906 23.99005317687988 5.230171203613281 25.53172302246094 5.935089111328125 26.86721420288086 C 6.640018463134766 28.20269393920898 7.962429046630859 28.99999237060547 9.472539901733398 28.99999237060547 L 31.52746963500977 28.99999237060547 C 33.03741836547852 28.99999237060547 34.35974884033203 28.2026424407959 35.06472015380859 26.8670825958252 C 35.76966857910156 25.53154373168945 35.68193817138672 23.98992347717285 34.83003997802734 22.74323272705078 L 23.80257987976074 6.605493545532227 C 23.04553985595703 5.497642517089844 21.84180068969727 4.862253189086914 20.5 4.862253189086914 M 20.49999809265137 3.862253189086914 C 22.06777191162109 3.862253189086914 23.63554573059082 4.588603973388672 24.62821960449219 6.041303634643555 L 35.65568161010742 22.17904281616211 C 37.92328262329102 25.49748039245605 35.54647827148438 29.99999237060547 31.52747344970703 29.99999237060547 C 31.52722930908203 29.99999237060547 31.52770614624023 29.99999237060547 31.5274600982666 29.99999237060547 L 9.472539901733398 29.99999237060547 C 5.453090667724609 30.00000381469727 3.076580047607422 25.49768257141113 5.344310760498047 22.17905426025391 L 16.37177085876465 6.041303634643555 C 17.36445045471191 4.588603973388672 18.93222427368164 3.862253189086914 20.49999809265137 3.862253189086914 Z" stroke="none"/></g><g transform="matrix(1, 0, 0, 1, 9, 20)" filter="url(#f)"><g transform="translate(12 62) rotate(-90)" fill="#fff"><path d="M 31.5274600982666 29.50000381469727 L 9.472539901733398 29.50000381469727 C 7.773660182952881 29.50000381469727 6.285950183868408 28.6030330657959 5.492909908294678 27.10061264038086 C 4.699870109558105 25.59819221496582 4.798649787902832 23.86381340026855 5.757140159606934 22.46115303039551 L 16.78458976745605 6.323402881622314 C 17.63625907897949 5.077063083648682 18.99047088623047 4.362253189086914 20.5 4.362253189086914 C 22.00952911376953 4.362253189086914 23.36374092102051 5.077063083648682 24.21540069580078 6.32339334487915 L 35.24285888671875 22.46114349365234 C 36.20135116577148 23.86380386352539 36.30012893676758 25.59819221496582 35.507080078125 27.10061264038086 C 34.71403884887695 28.6030330657959 33.2263298034668 29.50000381469727 31.5274600982666 29.50000381469727 Z" stroke="none"/><path d="M 20.5 4.862253189086914 C 19.15819931030273 4.862253189086914 17.9544506072998 5.497642517089844 17.19741058349609 6.605493545532227 L 6.169948577880859 22.74324417114258 C 5.317970275878906 23.99005317687988 5.230171203613281 25.53172302246094 5.935089111328125 26.86721420288086 C 6.640018463134766 28.20269393920898 7.962429046630859 28.99999237060547 9.472539901733398 28.99999237060547 L 31.52746963500977 28.99999237060547 C 33.03741836547852 28.99999237060547 34.35974884033203 28.2026424407959 35.06472015380859 26.8670825958252 C 35.76966857910156 25.53154373168945 35.68193817138672 23.98992347717285 34.83003997802734 22.74323272705078 L 23.80257987976074 6.605493545532227 C 23.04553985595703 5.497642517089844 21.84180068969727 4.862253189086914 20.5 4.862253189086914 M 20.49999809265137 3.862253189086914 C 22.06777191162109 3.862253189086914 23.63554573059082 4.588603973388672 24.62821960449219 6.041303634643555 L 35.65568161010742 22.17904281616211 C 37.92328262329102 25.49748039245605 35.54647827148438 29.99999237060547 31.52747344970703 29.99999237060547 C 31.52722930908203 29.99999237060547 31.52770614624023 29.99999237060547 31.5274600982666 29.99999237060547 L 9.472539901733398 29.99999237060547 C 5.453090667724609 30.00000381469727 3.076580047607422 25.49768257141113 5.344310760498047 22.17905426025391 L 16.37177085876465 6.041303634643555 C 17.36445045471191 4.588603973388672 18.93222427368164 3.862253189086914 20.49999809265137 3.862253189086914 Z" stroke="none"/></g></g><g transform="translate(21 82) rotate(-90)" fill="none"><path d="M 31.5274600982666 29.50000381469727 L 9.472539901733398 29.50000381469727 C 7.773660182952881 29.50000381469727 6.285950183868408 28.6030330657959 5.492909908294678 27.10061264038086 C 4.699870109558105 25.59819221496582 4.798649787902832 23.86381340026855 5.757140159606934 22.46115303039551 L 16.78458976745605 6.323402881622314 C 17.63625907897949 5.077063083648682 18.99047088623047 4.362253189086914 20.5 4.362253189086914 C 22.00952911376953 4.362253189086914 23.36374092102051 5.077063083648682 24.21540069580078 6.32339334487915 L 35.24285888671875 22.46114349365234 C 36.20135116577148 23.86380386352539 36.30012893676758 25.59819221496582 35.507080078125 27.10061264038086 C 34.71403884887695 28.6030330657959 33.2263298034668 29.50000381469727 31.5274600982666 29.50000381469727 Z" stroke="none"/><path d="M 20.5 4.862253189086914 C 19.15819931030273 4.862253189086914 17.9544506072998 5.497642517089844 17.19741058349609 6.605493545532227 L 6.169948577880859 22.74324417114258 C 5.317970275878906 23.99005317687988 5.230171203613281 25.53172302246094 5.935089111328125 26.86721420288086 C 6.640018463134766 28.20269393920898 7.962429046630859 28.99999237060547 9.472539901733398 28.99999237060547 L 31.52746963500977 28.99999237060547 C 33.03741836547852 28.99999237060547 34.35974884033203 28.2026424407959 35.06472015380859 26.8670825958252 C 35.76966857910156 25.53154373168945 35.68193817138672 23.98992347717285 34.83003997802734 22.74323272705078 L 23.80257987976074 6.605493545532227 C 23.04553985595703 5.497642517089844 21.84180068969727 4.862253189086914 20.5 4.862253189086914 M 20.49999809265137 3.862253189086914 C 22.06777191162109 3.862253189086914 23.63554573059082 4.588603973388672 24.62821960449219 6.041303634643555 L 35.65568161010742 22.17904281616211 C 37.92328262329102 25.49748039245605 35.54647827148438 29.99999237060547 31.52747344970703 29.99999237060547 C 31.52722930908203 29.99999237060547 31.52770614624023 29.99999237060547 31.5274600982666 29.99999237060547 L 9.472539901733398 29.99999237060547 C 5.453090667724609 30.00000381469727 3.076580047607422 25.49768257141113 5.344310760498047 22.17905426025391 L 16.37177085876465 6.041303634643555 C 17.36445045471191 4.588603973388672 18.93222427368164 3.862253189086914 20.49999809265137 3.862253189086914 Z" stroke="none" fill="#707070"/></g></g><circle cx="5" cy="5" r="5" transform="translate(34 35)" fill="rgba(255,255,255,0.45)"/><g transform="translate(52 56)" fill="#fff" stroke="#707070" stroke-width="1"><rect width="27" height="11" rx="5.5" stroke="none"/><rect x="0.5" y="0.5" width="26" height="10" rx="5" fill="none"/></g></g></svg>