<svg xmlns="http://www.w3.org/2000/svg" width="125" height="133" viewBox="0 0 125 133"><g transform="translate(-80 -271.871)"><g transform="translate(80 271.871)" fill="#f3efaa" stroke="#707070" stroke-width="1"><rect width="125" height="118" rx="8" stroke="none"/><rect x="0.5" y="0.5" width="124" height="117" rx="7.5" fill="none"/></g><g transform="translate(90 277.871)" fill="#d5d190" stroke="#707070" stroke-width="1"><rect width="106" height="82" stroke="none"/><rect x="0.5" y="0.5" width="105" height="81" fill="none"/></g><g transform="translate(92 279.871)" fill="#00bf98" stroke="#707070" stroke-width="1"><rect width="102" height="78" rx="18" stroke="none"/><rect x="0.5" y="0.5" width="101" height="77" rx="17.5" fill="none"/></g><g transform="translate(177 368.871)" fill="#d5d190" stroke="#707070" stroke-width="1"><circle cx="5.5" cy="5.5" r="5.5" stroke="none"/><circle cx="5.5" cy="5.5" r="5" fill="none"/></g><g transform="translate(128 372.871)" fill="#707070" stroke="#707070" stroke-width="1"><rect width="45" height="2" stroke="none"/><rect x="0.5" y="0.5" width="44" height="1" fill="none"/></g><path d="M1653.987,359.735h23.732l9.84-75.943h-21.3l-12.271,75.162" transform="translate(-1506.643 -3.264)" fill="#09ecbe" opacity="0.5"/><g transform="translate(90 396.871)" fill="#f3efaa" stroke="#707070" stroke-width="1"><rect width="106" height="8" stroke="none"/><rect x="0.5" y="0.5" width="105" height="7" fill="none"/></g><path d="M1596.961,291.921s-5.515,23.062-3.509,44.118,8.021,21.056,13.035,23.312,16.544,1,16.544,1-7.894-6.383-12.532-13.9-4.107-6.047-7.987-17.343S1596.961,291.921,1596.961,291.921Z" transform="translate(-1499.25 -5.508)" fill="#04d5aa"/><text transform="translate(109 305.871)" fill="#06f" font-size="3" font-family="MicrosoftTaiLe-Bold, Microsoft Tai Le" font-weight="700"><tspan x="0" y="0">Hello World</tspan></text></g></svg>