<svg xmlns="http://www.w3.org/2000/svg" xmlns:xlink="http://www.w3.org/1999/xlink" width="124" height="124" viewBox="0 0 124 124"><defs><filter id="a"><feOffset dy="3" input="SourceAlpha"/><feGaussianBlur stdDeviation="3" result="b"/><feFlood flood-opacity="0.161" result="c"/><feComposite operator="out" in="SourceGraphic" in2="b"/><feComposite operator="in" in="c"/><feComposite operator="in" in2="SourceGraphic"/></filter><filter id="d" x="21" y="17" width="97" height="96" filterUnits="userSpaceOnUse"><feOffset dy="3" input="SourceAlpha"/><feGaussianBlur stdDeviation="4" result="e"/><feFlood flood-opacity="0.161"/><feComposite operator="in" in2="e"/></filter><filter id="f" x="21" y="17" width="97" height="96" filterUnits="userSpaceOnUse"><feOffset dy="3" input="SourceAlpha"/><feGaussianBlur stdDeviation="4" result="g"/><feFlood flood-opacity="0.161" result="h"/><feComposite operator="out" in="SourceGraphic" in2="g"/><feComposite operator="in" in="h"/><feComposite operator="in" in2="SourceGraphic"/></filter></defs><g transform="translate(-14 -20)"><g data-type="innerShadowGroup"><circle cx="62" cy="62" r="62" transform="translate(14 20)" fill="#0db4fe"/><g transform="matrix(1, 0, 0, 1, 14, 20)" filter="url(#a)"><circle cx="62" cy="62" r="62" fill="#fff"/></g><g transform="translate(14 20)" fill="none" stroke="#707070" stroke-width="1"><circle cx="62" cy="62" r="62" stroke="none"/><circle cx="62" cy="62" r="61.5" fill="none"/></g></g><g data-type="innerShadowGroup"><g transform="matrix(1, 0, 0, 1, 14, 20)" filter="url(#d)"><g transform="translate(106 26) rotate(90)" fill="#fff"><path d="M 63.95930862426758 72.5 L 8.040690422058105 72.5 C 6.474760055541992 72.5 5.046189785003662 71.70609283447266 4.219279766082764 70.37629699707031 C 3.392359972000122 69.04650115966797 3.312170028686523 67.41412353515625 4.004779815673828 66.00968933105469 L 31.96408081054688 9.314420700073242 C 32.73905944824219 7.742940425872803 34.24782180786133 6.804740428924561 36 6.804740428924561 C 37.75218963623047 6.804740428924561 39.26094055175781 7.742940425872803 40.03591156005859 9.314420700073242 L 67.99523162841797 66.00968933105469 C 68.68782806396484 67.41412353515625 68.60764312744141 69.04650115966797 67.78072357177734 70.37629699707031 C 66.95381164550781 71.70609283447266 65.52523803710938 72.5 63.95930862426758 72.5 Z" stroke="none"/><path d="M 35.9999885559082 7.304733276367188 C 34.44250106811523 7.304733276367188 33.10137939453125 8.138687133789062 32.41250991821289 9.535568237304688 L 4.453201293945312 66.23081970214844 C 3.837562561035156 67.47920989990234 3.908836364746094 68.93022155761719 4.643882751464844 70.11225891113281 C 5.378921508789062 71.29430389404297 6.648750305175781 72 8.040691375732422 72 L 63.95930862426758 72 C 65.35124969482422 72 66.62107849121094 71.29430389404297 67.35611724853516 70.11225891113281 C 68.09116363525391 68.93022155761719 68.16243743896484 67.47920989990234 67.54679107666016 66.23081970214844 L 39.58747863769531 9.535568237304688 C 38.89860916137695 8.138687133789062 37.55749130249023 7.304733276367188 35.9999885559082 7.304733276367188 M 35.99999618530273 6.304733276367188 C 37.78378295898438 6.304733276367188 39.56756973266602 7.2342529296875 40.48435211181641 9.093276977539062 L 68.44365692138672 65.78852844238281 C 70.08232116699219 69.11135864257812 67.66422271728516 73 63.95930862426758 73 L 8.040691375732422 73 C 4.335777282714844 73 1.917678833007812 69.11135864257812 3.556327819824219 65.78852844238281 L 31.51564025878906 9.093276977539062 C 32.43241882324219 7.2342529296875 34.21620559692383 6.304733276367188 35.99999618530273 6.304733276367188 Z" stroke="none" fill="#707070"/></g></g><g transform="translate(120 46) rotate(90)" fill="#fff"><path d="M 63.95930862426758 72.5 L 8.040690422058105 72.5 C 6.474760055541992 72.5 5.046189785003662 71.70609283447266 4.219279766082764 70.37629699707031 C 3.392359972000122 69.04650115966797 3.312170028686523 67.41412353515625 4.004779815673828 66.00968933105469 L 31.96408081054688 9.314420700073242 C 32.73905944824219 7.742940425872803 34.24782180786133 6.804740428924561 36 6.804740428924561 C 37.75218963623047 6.804740428924561 39.26094055175781 7.742940425872803 40.03591156005859 9.314420700073242 L 67.99523162841797 66.00968933105469 C 68.68782806396484 67.41412353515625 68.60764312744141 69.04650115966797 67.78072357177734 70.37629699707031 C 66.95381164550781 71.70609283447266 65.52523803710938 72.5 63.95930862426758 72.5 Z" stroke="none"/><path d="M 35.9999885559082 7.304733276367188 C 34.44250106811523 7.304733276367188 33.10137939453125 8.138687133789062 32.41250991821289 9.535568237304688 L 4.453201293945312 66.23081970214844 C 3.837562561035156 67.47920989990234 3.908836364746094 68.93022155761719 4.643882751464844 70.11225891113281 C 5.378921508789062 71.29430389404297 6.648750305175781 72 8.040691375732422 72 L 63.95930862426758 72 C 65.35124969482422 72 66.62107849121094 71.29430389404297 67.35611724853516 70.11225891113281 C 68.09116363525391 68.93022155761719 68.16243743896484 67.47920989990234 67.54679107666016 66.23081970214844 L 39.58747863769531 9.535568237304688 C 38.89860916137695 8.138687133789062 37.55749130249023 7.304733276367188 35.9999885559082 7.304733276367188 M 35.99999618530273 6.304733276367188 C 37.78378295898438 6.304733276367188 39.56756973266602 7.2342529296875 40.48435211181641 9.093276977539062 L 68.44365692138672 65.78852844238281 C 70.08232116699219 69.11135864257812 67.66422271728516 73 63.95930862426758 73 L 8.040691375732422 73 C 4.335777282714844 73 1.917678833007812 69.11135864257812 3.556327819824219 65.78852844238281 L 31.51564025878906 9.093276977539062 C 32.43241882324219 7.2342529296875 34.21620559692383 6.304733276367188 35.99999618530273 6.304733276367188 Z" stroke="none"/></g><g transform="matrix(1, 0, 0, 1, 14, 20)" filter="url(#f)"><g transform="translate(106 26) rotate(90)" fill="#fff"><path d="M 63.95930862426758 72.5 L 8.040690422058105 72.5 C 6.474760055541992 72.5 5.046189785003662 71.70609283447266 4.219279766082764 70.37629699707031 C 3.392359972000122 69.04650115966797 3.312170028686523 67.41412353515625 4.004779815673828 66.00968933105469 L 31.96408081054688 9.314420700073242 C 32.73905944824219 7.742940425872803 34.24782180786133 6.804740428924561 36 6.804740428924561 C 37.75218963623047 6.804740428924561 39.26094055175781 7.742940425872803 40.03591156005859 9.314420700073242 L 67.99523162841797 66.00968933105469 C 68.68782806396484 67.41412353515625 68.60764312744141 69.04650115966797 67.78072357177734 70.37629699707031 C 66.95381164550781 71.70609283447266 65.52523803710938 72.5 63.95930862426758 72.5 Z" stroke="none"/><path d="M 35.9999885559082 7.304733276367188 C 34.44250106811523 7.304733276367188 33.10137939453125 8.138687133789062 32.41250991821289 9.535568237304688 L 4.453201293945312 66.23081970214844 C 3.837562561035156 67.47920989990234 3.908836364746094 68.93022155761719 4.643882751464844 70.11225891113281 C 5.378921508789062 71.29430389404297 6.648750305175781 72 8.040691375732422 72 L 63.95930862426758 72 C 65.35124969482422 72 66.62107849121094 71.29430389404297 67.35611724853516 70.11225891113281 C 68.09116363525391 68.93022155761719 68.16243743896484 67.47920989990234 67.54679107666016 66.23081970214844 L 39.58747863769531 9.535568237304688 C 38.89860916137695 8.138687133789062 37.55749130249023 7.304733276367188 35.9999885559082 7.304733276367188 M 35.99999618530273 6.304733276367188 C 37.78378295898438 6.304733276367188 39.56756973266602 7.2342529296875 40.48435211181641 9.093276977539062 L 68.44365692138672 65.78852844238281 C 70.08232116699219 69.11135864257812 67.66422271728516 73 63.95930862426758 73 L 8.040691375732422 73 C 4.335777282714844 73 1.917678833007812 69.11135864257812 3.556327819824219 65.78852844238281 L 31.51564025878906 9.093276977539062 C 32.43241882324219 7.2342529296875 34.21620559692383 6.304733276367188 35.99999618530273 6.304733276367188 Z" stroke="none"/></g></g><g transform="translate(120 46) rotate(90)" fill="none"><path d="M 63.95930862426758 72.5 L 8.040690422058105 72.5 C 6.474760055541992 72.5 5.046189785003662 71.70609283447266 4.219279766082764 70.37629699707031 C 3.392359972000122 69.04650115966797 3.312170028686523 67.41412353515625 4.004779815673828 66.00968933105469 L 31.96408081054688 9.314420700073242 C 32.73905944824219 7.742940425872803 34.24782180786133 6.804740428924561 36 6.804740428924561 C 37.75218963623047 6.804740428924561 39.26094055175781 7.742940425872803 40.03591156005859 9.314420700073242 L 67.99523162841797 66.00968933105469 C 68.68782806396484 67.41412353515625 68.60764312744141 69.04650115966797 67.78072357177734 70.37629699707031 C 66.95381164550781 71.70609283447266 65.52523803710938 72.5 63.95930862426758 72.5 Z" stroke="none"/><path d="M 35.9999885559082 7.304733276367188 C 34.44250106811523 7.304733276367188 33.10137939453125 8.138687133789062 32.41250991821289 9.535568237304688 L 4.453201293945312 66.23081970214844 C 3.837562561035156 67.47920989990234 3.908836364746094 68.93022155761719 4.643882751464844 70.11225891113281 C 5.378921508789062 71.29430389404297 6.648750305175781 72 8.040691375732422 72 L 63.95930862426758 72 C 65.35124969482422 72 66.62107849121094 71.29430389404297 67.35611724853516 70.11225891113281 C 68.09116363525391 68.93022155761719 68.16243743896484 67.47920989990234 67.54679107666016 66.23081970214844 L 39.58747863769531 9.535568237304688 C 38.89860916137695 8.138687133789062 37.55749130249023 7.304733276367188 35.9999885559082 7.304733276367188 M 35.99999618530273 6.304733276367188 C 37.78378295898438 6.304733276367188 39.56756973266602 7.2342529296875 40.48435211181641 9.093276977539062 L 68.44365692138672 65.78852844238281 C 70.08232116699219 69.11135864257812 67.66422271728516 73 63.95930862426758 73 L 8.040691375732422 73 C 4.335777282714844 73 1.917678833007812 69.11135864257812 3.556327819824219 65.78852844238281 L 31.51564025878906 9.093276977539062 C 32.43241882324219 7.2342529296875 34.21620559692383 6.304733276367188 35.99999618530273 6.304733276367188 Z" stroke="none" fill="#707070"/></g></g><circle cx="7.5" cy="7.5" r="7.5" transform="translate(38 43)" fill="rgba(255,255,255,0.45)"/></g></svg>