<svg xmlns="http://www.w3.org/2000/svg" xmlns:xlink="http://www.w3.org/1999/xlink" width="102" height="102" viewBox="0 0 102 102"><defs><filter id="a"><feOffset dy="3" input="SourceAlpha"/><feGaussianBlur stdDeviation="3" result="b"/><feFlood flood-opacity="0.161" result="c"/><feComposite operator="out" in="SourceGraphic" in2="b"/><feComposite operator="in" in="c"/><feComposite operator="in" in2="SourceGraphic"/></filter></defs><g transform="translate(-19 -24.509)"><g data-type="innerShadowGroup"><circle cx="51" cy="51" r="51" transform="translate(19 24.509)" fill="#0db4fe"/><g transform="matrix(1, 0, 0, 1, 19, 24.51)" filter="url(#a)"><circle cx="51" cy="51" r="51" fill="#fff"/></g><g transform="translate(19 24.509)" fill="none" stroke="#707070" stroke-width="1"><circle cx="51" cy="51" r="51" stroke="none"/><circle cx="51" cy="51" r="50.5" fill="none"/></g></g><ellipse cx="5.5" cy="6.5" rx="5.5" ry="6.5" transform="translate(34 37.509)" fill="rgba(255,255,255,0.45)"/><g transform="translate(37.972 44.598)"><path d="M34.7,62.142H29.365a3.95,3.95,0,0,1-4-3.884V53.437a24.244,24.244,0,0,1-4.913-1.977l-3.516,3.411a4.2,4.2,0,0,1-5.663,0L7.492,51.21a3.8,3.8,0,0,1,0-5.492l3.517-3.413a22.586,22.586,0,0,1-2.036-4.763H4a3.95,3.95,0,0,1-4-3.884V28.48a3.8,3.8,0,0,1,1.172-2.746A4.047,4.047,0,0,1,4,24.6H8.975a22.735,22.735,0,0,1,2.037-4.763L7.5,16.422a3.8,3.8,0,0,1,0-5.492l3.775-3.662a4.2,4.2,0,0,1,5.663,0l3.517,3.411a24.233,24.233,0,0,1,4.909-1.974V3.884a3.95,3.95,0,0,1,4-3.884H34.7a3.95,3.95,0,0,1,4,3.884V8.705a24.259,24.259,0,0,1,4.909,1.974l3.517-3.411a4.2,4.2,0,0,1,5.663,0l3.776,3.661a3.8,3.8,0,0,1,0,5.492l-3.516,3.411A22.617,22.617,0,0,1,55.1,24.6h4.969a3.95,3.95,0,0,1,4,3.884v5.179A3.8,3.8,0,0,1,62.9,36.4a4.045,4.045,0,0,1-2.832,1.138H55.094a22.728,22.728,0,0,1-2.037,4.764l3.516,3.411a3.8,3.8,0,0,1,0,5.492L52.8,54.873a4.2,4.2,0,0,1-5.663,0l-3.514-3.411a24.249,24.249,0,0,1-4.911,1.976v4.821A3.951,3.951,0,0,1,34.7,62.142Zm-14.473-13.6a1.369,1.369,0,0,1,.7.189,21.56,21.56,0,0,0,6.083,2.448,1.3,1.3,0,0,1,1.021,1.258v5.817a1.316,1.316,0,0,0,1.335,1.295H34.7a1.316,1.316,0,0,0,1.335-1.295V52.441a1.3,1.3,0,0,1,1.021-1.258,21.558,21.558,0,0,0,6.081-2.447,1.367,1.367,0,0,1,1.64.189l4.242,4.116a1.407,1.407,0,0,0,1.889,0l3.775-3.663a1.268,1.268,0,0,0,0-1.831l-4.243-4.116a1.265,1.265,0,0,1-.195-1.591,20.2,20.2,0,0,0,2.521-5.9,1.327,1.327,0,0,1,1.3-.992h6a1.35,1.35,0,0,0,.945-.379,1.256,1.256,0,0,0,.39-.913V28.48a1.316,1.316,0,0,0-1.335-1.295h-6a1.326,1.326,0,0,1-1.3-.992,20.184,20.184,0,0,0-2.521-5.9,1.266,1.266,0,0,1,.195-1.591l4.243-4.116a1.267,1.267,0,0,0,0-1.831L50.911,9.1a1.4,1.4,0,0,0-1.889,0l-4.243,4.116a1.36,1.36,0,0,1-1.64.189,21.542,21.542,0,0,0-6.079-2.446A1.3,1.3,0,0,1,36.039,9.7V3.884A1.316,1.316,0,0,0,34.7,2.589H29.365A1.316,1.316,0,0,0,28.03,3.884V9.7a1.3,1.3,0,0,1-1.021,1.258A21.555,21.555,0,0,0,20.928,13.4a1.364,1.364,0,0,1-1.639-.189L15.046,9.1a1.4,1.4,0,0,0-1.889,0L9.384,12.761a1.268,1.268,0,0,0,0,1.831l4.243,4.116a1.265,1.265,0,0,1,.195,1.591A20.192,20.192,0,0,0,11.3,26.2a1.327,1.327,0,0,1-1.3.992H4a1.35,1.35,0,0,0-.945.379,1.261,1.261,0,0,0-.39.914v5.179A1.316,1.316,0,0,0,4,34.954h6a1.326,1.326,0,0,1,1.3.992,20.2,20.2,0,0,0,2.521,5.9,1.266,1.266,0,0,1-.195,1.591L9.382,47.55a1.267,1.267,0,0,0,0,1.831l3.776,3.661a1.4,1.4,0,0,0,1.889,0l4.242-4.116A1.342,1.342,0,0,1,20.231,48.546Z" fill="#fff"/><g transform="translate(20.875 19.911)"><path d="M25.16,36.32A11.16,11.16,0,1,1,36.32,25.16,11.173,11.173,0,0,1,25.16,36.32Zm0-20.088a8.928,8.928,0,1,0,8.928,8.928A8.939,8.939,0,0,0,25.16,16.232Z" transform="translate(-14 -14)" fill="#fff"/></g></g></g></svg>